<svg version="1.2" xmlns="http://www.w3.org/2000/svg" viewBox="0 0 1024 1024" width="1024" height="1024">
	<style>
		.s0 { fill: #ffffff } 
		.s1 { fill: #171717 } 
	</style>
	<path class="s0" d="m0 0h1024v1024h-1024z"/>
	<path class="s1" d="m695.22 140.25l1.04-0.01c12.25-0.04 24.62 0.37 36.68 2.39 75.02 12.57 136.34 72.27 149.08 147.53 2.54 15 2.95 29.04 2.98 44.23l0.05 263.79-0.14 71.23c0 21.38 1.05 48.56-3.37 69.1-7.31 34.94-24.53 67.04-49.6 92.46-23.75 23.89-53.61 40.79-86.32 48.86-29.53 7.04-50.4 5.13-80.27 5.13l-73.44 0.04h-261.64c-8.42 0.03-15.49 0.09-23.91-0.74-42.09-3.98-81.55-22.28-111.79-51.84-23.9-23.52-40.84-53.19-48.95-85.73-6.43-25.58-5.27-43.24-5.26-69.18l0.03-53.24-0.14-171.23 0.06-90.13c0.01-15.86-0.7-37.96 0.45-53.35 2.94-43.57 21.48-84.63 52.23-115.65 23.89-24.07 54.08-40.94 87.11-48.66 27.54-6.46 54.13-4.88 82.29-4.9l78.98-0.04z"/>
	<path class="s0" d="m321.32 209.75c36.93-0.48 74.82-0.17 111.8-0.1l157.3 0.06 79.35-0.1c17.02-0.02 36.46-1.06 53.06 1.85 53.01 9.32 92.63 56.93 92.6 110.7-0.02 29.14 0.07 58.49 0.06 87.72l-0.03 173.08 0.13 76.04c0.12 19.52 1.34 44.88-2.15 63.55-3.98 21.36-14.16 41.07-29.28 56.68-22.34 23.05-49.92 34.86-82 35.39-30.88 0.61-63.3 0.02-94.32-0.02l-171.97-0.01-79.75 0.17c-15.91 0.08-33.8 1.13-49.55-1.23-52.26-7.83-95.31-54.05-96.65-107.33-0.64-25.52-0.19-51.34-0.21-76.85l0.09-161.63 0.02-102.07c0-14.37 0.03-28.77 0.09-43.13 0.25-63.22 48.61-110.63 111.41-112.77z"/>
	<path class="s1" d="m544.49 353.07l-0.07 168.8c7.52-6.93 15.61-15.52 22.91-22.94l32.14-32.45c5.67-5.79 11.62-12.25 17.46-17.77l75.11 73.48c0.71-54.37 0.14-110.71-0.07-165.11l64.38-0.16q0.72 91.45 0.01 182.9v89.78c-0.04 13.24 0.32 28.14-0.18 41.19-4.1-3.13-11.45-10.85-15.45-14.79l-26.4-25.85-61.2-60.23c-11.73-11.57-23.39-23.55-35.37-34.82-16.39 15.5-33.45 33.6-49.34 49.67l-87.65 88.2c-0.41-15.98-0.02-34.03-0.08-50.18l-0.07-117.75c-22.86 23.97-47.71 48.66-71.07 72.17-7.7-5.94-23.68-22.68-31.18-29.93-15.02-14.54-30.39-29.36-45.18-44.11 0.32 18.42-0.23 36.12-0.2 54.45 0.06 37.25-0.28 74.72 0.17 111.96q-32.11-0.22-64.22 0.01l0.02-316.14c4.28 3.09 14.67 13.87 18.75 17.91q17.42 16.91 34.54 34.12l62.62 61.6c7.97 7.84 16.07 15.28 23.86 23.32l97.8-99.16 23.61-23.68c4.74-4.82 9.41-9.94 14.35-14.49z"/>
</svg>