<svg width="64" height="64" viewBox="0 0 64 64" xmlns="http://www.w3.org/2000/svg">
  <defs>
    <linearGradient id="bgGradient" x1="0%" y1="0%" x2="100%" y2="100%">
      <stop offset="0%" style="stop-color:#667eea;stop-opacity:1" />
      <stop offset="100%" style="stop-color:#764ba2;stop-opacity:1" />
    </linearGradient>
    <linearGradient id="textGradient" x1="0%" y1="0%" x2="100%" y2="100%">
      <stop offset="0%" style="stop-color:#ffffff;stop-opacity:1" />
      <stop offset="100%" style="stop-color:#f7fafc;stop-opacity:1" />
    </linearGradient>
  </defs>
  
  <!-- Background Circle -->
  <circle cx="32" cy="32" r="30" fill="url(#bgGradient)" stroke="#4a5568" stroke-width="1"/>
  
  <!-- Tech Grid Pattern Background -->
  <defs>
    <pattern id="grid" width="8" height="8" patternUnits="userSpaceOnUse">
      <path d="M 8 0 L 0 0 0 8" fill="none" stroke="rgba(255,255,255,0.1)" stroke-width="0.5"/>
    </pattern>
  </defs>
  <circle cx="32" cy="32" r="28" fill="url(#grid)" opacity="0.3"/>
  
  <!-- Main "MW" Text -->
  <text x="32" y="42" font-family="Inter, Arial, sans-serif" font-size="22" font-weight="700" text-anchor="middle" fill="url(#textGradient)">MW</text>
  
  <!-- Small Tech Accent - Terminal Cursor -->
  <rect x="48" y="18" width="2" height="12" fill="#10b981" opacity="0.8">
    <animate attributeName="opacity" values="0.8;0.3;0.8" dur="1.5s" repeatCount="indefinite"/>
  </rect>
  
  <!-- Small DevOps Icon - Gear -->
  <g transform="translate(14,16) scale(0.7)">
    <path d="M12 15.5A3.5 3.5 0 0 1 8.5 12A3.5 3.5 0 0 1 12 8.5A3.5 3.5 0 0 1 15.5 12A3.5 3.5 0 0 1 12 15.5M19.43 12.97C19.47 12.65 19.5 12.33 19.5 12C19.5 11.67 19.47 11.34 19.43 11L21.54 9.37C21.73 9.22 21.78 8.95 21.66 8.73L19.66 5.27C19.54 5.05 19.27 4.96 19.05 5.05L16.56 6.05C16.04 5.66 15.5 5.32 14.87 5.07L14.5 2.42C14.46 2.18 14.25 2 14 2H10C9.75 2 9.54 2.18 9.5 2.42L9.13 5.07C8.5 5.32 7.96 5.66 7.44 6.05L4.95 5.05C4.73 4.96 4.46 5.05 4.34 5.27L2.34 8.73C2.22 8.95 2.27 9.22 2.46 9.37L4.57 11C4.53 11.34 4.5 11.67 4.5 12C4.5 12.33 4.53 12.65 4.57 12.97L2.46 14.63C2.27 14.78 2.22 15.05 2.34 15.27L4.34 18.73C4.46 18.95 4.73 19.03 4.95 18.95L7.44 17.94C7.96 18.34 8.5 18.68 9.13 18.93L9.5 21.58C9.54 21.82 9.75 22 10 22H14C14.25 22 14.46 21.82 14.5 21.58L14.87 18.93C15.5 18.68 16.04 18.34 16.56 17.94L19.05 18.95C19.27 19.03 19.54 18.95 19.66 18.73L21.66 15.27C21.78 15.05 21.73 14.78 21.54 14.63L19.43 12.97Z" fill="rgba(255,255,255,0.4)" transform="scale(0.5)"/>
  </g>
</svg>